<svg width="34" height="32" viewBox="0 0 34 32" fill="none" xmlns="http://www.w3.org/2000/svg">
<path d="M17 0C14.7675 0 12.5569 0.424127 10.4944 1.24817C8.43185 2.0722 6.55778 3.28001 4.97918 4.80264C1.79107 7.87772 0 12.0484 0 16.3972C0 23.6448 4.879 29.7938 11.628 31.9746C12.478 32.1058 12.75 31.5975 12.75 31.1547V28.3836C8.041 29.3674 7.038 26.1864 7.038 26.1864C6.256 24.2843 5.151 23.776 5.151 23.776C3.604 22.7594 5.27 22.7922 5.27 22.7922C6.97 22.9069 7.871 24.4811 7.871 24.4811C9.35 26.9734 11.849 26.2356 12.818 25.842C12.971 24.7762 13.413 24.0547 13.889 23.6448C10.115 23.2349 6.154 21.8247 6.154 15.5774C6.154 13.7573 6.8 12.2979 7.905 11.1337C7.735 10.7238 7.14 9.01848 8.075 6.80485C8.075 6.80485 9.503 6.36213 12.75 8.47737C14.093 8.11663 15.555 7.93626 17 7.93626C18.445 7.93626 19.907 8.11663 21.25 8.47737C24.497 6.36213 25.925 6.80485 25.925 6.80485C26.86 9.01848 26.265 10.7238 26.095 11.1337C27.2 12.2979 27.846 13.7573 27.846 15.5774C27.846 21.8411 23.868 23.2185 20.077 23.6284C20.689 24.1367 21.25 25.137 21.25 26.6619V31.1547C21.25 31.5975 21.522 32.1222 22.389 31.9746C29.138 29.7774 34 23.6448 34 16.3972C34 14.2439 33.5603 12.1117 32.706 10.1223C31.8516 8.13288 30.5994 6.32526 29.0208 4.80264C27.4422 3.28001 25.5682 2.0722 23.5056 1.24817C21.4431 0.424127 19.2325 0 17 0Z" fill="black"/>
</svg>
