<svg width="32" height="32" viewBox="0 0 32 32" fill="none" xmlns="http://www.w3.org/2000/svg">
<path d="M28 0C28.9283 0 29.8185 0.368749 30.4749 1.02513C31.1313 1.6815 31.5 2.57174 31.5 3.5V28C31.5 28.9283 31.1313 29.8185 30.4749 30.4749C29.8185 31.1313 28.9283 31.5 28 31.5H3.5C2.57174 31.5 1.6815 31.1313 1.02513 30.4749C0.368749 29.8185 0 28.9283 0 28V3.5C0 2.57174 0.368749 1.6815 1.02513 1.02513C1.6815 0.368749 2.57174 0 3.5 0H28ZM27.125 27.125V17.85C27.125 16.3369 26.5239 14.8859 25.454 13.816C24.3841 12.7461 22.9331 12.145 21.42 12.145C19.9325 12.145 18.2 13.055 17.36 14.42V12.4775H12.4775V27.125H17.36V18.4975C17.36 17.15 18.445 16.0475 19.7925 16.0475C20.4423 16.0475 21.0654 16.3056 21.5249 16.7651C21.9844 17.2246 22.2425 17.8477 22.2425 18.4975V27.125H27.125ZM6.79 9.73C7.56974 9.73 8.31754 9.42025 8.86889 8.86889C9.42025 8.31754 9.73 7.56974 9.73 6.79C9.73 5.1625 8.4175 3.8325 6.79 3.8325C6.00562 3.8325 5.25337 4.14409 4.69873 4.69873C4.14409 5.25337 3.8325 6.00562 3.8325 6.79C3.8325 8.4175 5.1625 9.73 6.79 9.73ZM9.2225 27.125V12.4775H4.375V27.125H9.2225Z" fill="black"/>
</svg>
