<svg width="1609" height="242" viewBox="0 0 1609 242" fill="none" xmlns="http://www.w3.org/2000/svg">
<path d="M19.9004 231.828C18.579 227.191 17.2332 220.993 16.5558 216.087C16.3455 214.58 16.4955 215.337 16.3623 214.301C16.1106 212.278 15.8918 210.418 15.7543 208.463C15.7071 207.768 15.8421 208.627 15.7928 207.9C15.5335 203.918 15.4495 200.241 15.6179 196.395C16.3401 177.091 23.7974 158.379 36.5202 143.538C40.6045 138.648 46.3728 133.17 51.4596 128.964C52.0606 128.463 51.6387 128.683 51.7487 128.583C53.4914 127.01 53.0107 127.655 54.2363 126.723C59.0345 123.099 64.4841 119.422 69.5111 116.339C71.5573 115.09 69.3843 116.148 71.5282 115.011C71.6777 114.932 71.2052 115.337 71.7818 115.012C73.0841 114.272 75.5843 112.84 76.636 112.28C78.6584 111.199 78.9965 111.019 80.9478 110.005C83.7245 108.572 86.6525 107.2 89.5366 105.832C90.1439 105.544 89.2866 105.812 90.2529 105.344C91.2163 104.874 93.8401 103.709 94.7499 103.346C95.6558 102.981 95.3118 103.232 95.4786 103.183C96.8536 102.775 99.8673 101.248 100.208 101.106C107.075 98.1724 113.795 95.8789 120.435 93.6693C125.511 91.9768 131.259 90.1675 136.246 88.7535C136.287 88.742 136.327 88.7305 136.368 88.719C142.252 87.0546 147.392 85.7701 153.405 84.2864C154.04 84.1304 153.261 84.1745 154.038 83.9839C161.903 82.0569 170.142 80.2819 178.247 78.7887C179.049 78.6414 178.041 78.9649 178.844 78.8252C183.743 77.9588 191.71 76.7795 194.648 75.7429C198.172 75.1625 202.098 74.5491 205.158 74.1834C207.113 73.9511 205.242 74.3749 207.627 73.9513C208.166 73.8564 207.445 73.847 208.255 73.7137C211.666 73.1526 215.444 72.6448 218.886 72.1088C219.586 71.9995 219.38 71.9219 219.577 71.8758C221.277 71.4868 223.93 71.3898 224.541 71.3288C229.048 70.8768 232.354 70.4128 236.617 69.9118C237.607 69.7962 236.42 69.7942 237.373 69.6782C242.339 69.0762 247.464 68.5307 252.217 68.1087C253.282 68.0144 252.316 68.2323 252.826 68.1934C255.076 68.0215 255.553 67.7487 257.723 67.5864C258.181 67.5521 257.933 67.6782 258.018 67.6812C259.339 67.7296 260.453 67.3753 260.79 67.3383C265.032 66.8663 267.869 66.8744 271.942 66.493C272.426 66.4477 271.323 66.4118 272.684 66.2926C281.714 65.5007 291.669 64.8232 300.713 64.3707C302.118 64.3002 301.121 64.4561 301.211 64.4624C302.662 64.5565 303.582 64.2572 304.04 64.2208C307.66 63.9406 311.079 63.9581 313.551 63.5387C329.131 62.8225 344.45 62.1047 359.738 61.9847C359.932 61.9829 359.587 62.1075 359.975 62.1034C364.644 62.0578 363.745 61.8996 366.84 61.6145C367.621 61.5431 370.008 61.762 370.22 61.7776C370.99 61.8347 370.196 62.0211 370.453 62.0301C372.586 62.0992 372.227 61.5382 375.11 61.4908C375.2 61.4902 374.823 61.6004 375.065 61.6068C375.817 61.6271 376.563 61.5741 377.3 61.5987C378.992 61.6564 379.592 61.9205 382.118 61.7283C382.438 61.7039 381.943 61.3901 384.481 61.3756C385.492 61.369 389.982 61.3192 391.246 61.3307C392.507 61.3411 391.642 61.4499 391.732 61.4536C395.131 61.5622 393.844 61.6281 395.55 61.8153C397.257 62.0023 396.781 61.5334 397.477 61.4768C398.174 61.4202 400.677 61.5196 401.294 61.5559C401.909 61.592 401.142 61.659 401.689 61.6787C405.321 61.8084 403.283 61.4407 404.48 61.3632C407.314 61.1816 409.494 61.5282 412.04 61.5643C412.73 61.5742 412.167 61.4949 412.782 61.4884C415.218 61.4645 416.685 61.5755 419.467 61.489C419.922 61.4746 422.174 61.2801 423.633 61.4403C423.84 61.4634 423.252 61.5448 424.297 61.5704C425.857 61.6085 428.675 61.6482 430.36 61.6352C431.604 61.6256 430.179 61.4732 431.745 61.5311C432.441 61.5571 431.149 61.6261 432.457 61.6681C433.754 61.7094 437.102 61.7423 438.35 61.7551C439.598 61.7674 438.916 61.6544 439.017 61.6486C439.627 61.6154 442.026 61.5968 442.239 61.6001C452.911 61.7362 462.966 62.1092 473.367 62.3134C474.185 62.3298 473.643 62.2099 473.768 62.2113C476.571 62.2389 474.354 62.4639 476.31 62.6086C476.033 62.3866 477.187 62.4551 479.166 62.4853C480.119 62.4998 479.602 62.4029 479.69 62.3968C481.107 62.31 482.088 62.5004 482.341 62.5406C483.274 62.6888 484.299 62.5745 484.935 62.6743C485.571 62.7734 484.099 62.8501 486 62.9039C486.536 62.8436 485.129 62.6034 486.575 62.6141C492.036 62.6514 502.206 63.1475 506.552 63.3237C510.908 63.498 512.32 63.5395 514.863 63.6638C519.459 63.891 517.78 63.6841 520.64 63.7351C523.511 63.7884 522.103 64.0759 522.512 64.1667C522.914 64.2572 523.359 64.1991 523.861 64.2604C524.362 64.3216 523.273 64.3272 524.453 64.3909C525.632 64.454 528.879 64.4596 529.288 64.401C530.174 64.2767 528.736 64.0432 531.839 64.2389C532.017 64.2502 531.433 64.3141 532.117 64.3531C537.547 64.6599 543.204 64.9251 548.65 65.2479C549.399 65.2924 548.724 65.3566 549.16 65.3835C553.7 65.6658 552.084 65.4245 554.584 65.3693C554.013 65.5803 555.383 65.7934 558.837 65.9693C560.905 66.0754 560.552 65.954 561.891 65.9505C562.293 65.9493 563.75 66.0959 564.017 66.0616C564.898 65.9502 563.531 65.7003 567.07 65.9596C567.225 65.9712 566.726 66.0305 567.263 66.0645C570.734 66.2848 571.158 66.1442 574.917 66.3334C577.864 66.4817 583.102 66.8783 586.462 67.0908C586.376 67.3397 589.557 67.4661 590.851 67.37C593.023 67.5061 595.37 67.6379 597.47 67.7897C598.193 67.8419 597.714 67.8845 597.804 67.8978C599.195 68.1041 600.151 67.9966 600.621 68.0192C605.712 68.2712 609.853 68.6567 614.722 68.853C614.895 68.8598 615.185 68.7124 616.477 68.9184C616.561 68.9321 614.95 68.9024 617.237 69.0577C618.319 69.1313 619.854 69.2535 621.508 69.3767C623.354 69.5153 625.343 69.6107 627.012 69.6175C627.775 69.623 629.726 69.5323 631.287 69.6304C631.495 69.6439 631.267 69.6902 631.568 69.7152C632.539 69.7927 633.066 69.6269 634.206 69.7417C635.334 69.8548 637.743 69.898 640.928 69.5981C641.031 69.5885 641.771 69.4162 642.782 69.3407C644.394 69.2231 646.671 69.034 648.334 68.843C649.13 68.7519 648.612 68.734 648.75 68.7169C654.129 68.034 657.935 67.4961 663.617 66.3527C664.668 66.1426 667.606 65.3882 669.628 64.9595C671.839 64.4795 669.697 65.4367 674.676 63.9884C676.704 63.3794 679.1 62.2289 682.754 61.2526C689.652 58.8869 695.971 56.4718 702.572 53.2807C702.87 53.1366 703.741 52.5977 704.451 52.253C705.493 51.7481 706.08 51.5122 706.814 51.1462C709.855 49.6254 712.629 48.0722 715.501 46.4168C716.594 45.783 716.242 46.0514 717.529 45.289C718.797 44.5302 719.638 43.9408 721.371 42.8786C722.672 42.0779 724.027 41.356 725.731 40.2079C725.73 40.0454 726.853 39.2981 728.875 37.7932C729.262 37.5045 728.817 37.7717 728.998 37.6332C729.734 37.0694 730.439 36.5933 731.112 36.0529C731.276 35.9216 731.257 35.8806 731.389 35.7713C732.527 34.834 734.509 33.3754 734.828 33.1316C736.069 32.2001 736.662 31.6238 737.597 30.8504C738.535 30.0677 737.18 31.2898 738.262 30.3645C740.51 28.4443 743.308 25.7506 745.312 23.5765C746.146 22.6716 745.537 23.2527 745.656 23.1224C747.352 21.2599 748.977 19.3315 749.706 18.1806C750.918 16.9671 750.654 16.982 752.572 14.0073C752.718 13.7666 753.02 13.5151 752.465 14.4685C751.905 15.4228 750.997 16.7133 750.101 17.9655C749.916 18.2414 748.766 19.914 748.579 20.1425C747.232 21.8748 746.886 21.9304 746.8 22.0202C745.849 22.9449 744.262 24.8158 743.803 25.2882C741.719 27.475 739.814 29.1866 737.991 30.8214C736.775 31.9028 736.72 32.1224 735.727 32.9447C732.438 35.6178 731.135 36.3527 727.94 38.8658C727.262 39.3857 728.071 39.0309 725.457 40.6817C725.296 40.7861 723.304 41.9898 722.249 42.7511C722.115 42.8486 722.144 42.8848 721.962 43.0065C720.746 43.8168 719.861 44.3281 718.517 45.1681C717.176 46.0056 715.507 47.0202 713.904 47.9064C712.95 48.436 711.666 49.0369 711.189 49.2688C709.84 49.928 708.472 50.7596 707.621 51.1063C706.758 51.4564 708.325 50.5313 706.127 51.5824C706.103 51.7378 705.976 51.9491 705.903 52.1302C701.106 54.5147 696.274 56.6104 691.271 58.5749C690.653 58.8169 691.312 58.6386 690.649 58.8991C687.835 59.9977 685.354 60.8355 682.387 61.8441C680.082 62.6262 677.601 63.4772 675.151 64.1951C673.635 64.4648 670.011 65.4924 667.356 66.0898C666.427 66.301 666.479 66.2423 665.814 66.3777C663.301 66.8776 664.503 66.7616 663.82 66.9337C660.871 67.6469 660.58 67.3667 657.074 67.9849C656.888 68.0206 654.644 68.5681 654.335 68.6226C652.357 68.9926 653.997 68.6101 652.749 68.7767C650.468 69.0705 648.866 69.2266 646.196 69.5533C645.417 69.6491 643.54 69.9407 642.003 69.9584C641.803 69.9609 641.909 69.8903 641.748 69.8981C638.831 70.0323 638.761 70.2195 637.086 70.3636C635.4 70.5067 632.825 70.4125 632.296 70.3727C630.918 70.2796 633.35 70.3195 633.424 70.3038C634.295 70.1669 632.416 70.2264 630.973 70.2128C630.764 70.0177 628.746 70.0105 629.476 70.195C629.559 70.2162 630.683 70.2049 630.973 70.2128C629.704 70.4081 627.482 70.4152 625.049 70.131C623.907 69.9897 624.998 69.9643 621.514 69.7933C621.502 69.7927 621.491 69.7921 621.48 69.7915C619.948 69.7098 620.528 69.8862 619.148 69.8352C615.971 69.7182 611.861 69.3258 608.594 69.1435C607.408 69.0775 608.558 69.2278 607.747 69.1856C605.596 69.0743 603.705 68.899 601.545 68.7992C601.349 68.7903 601.822 68.9024 601.151 68.8631C596.058 68.5673 591.66 68.2555 586.323 67.9506C583.75 67.8032 579.15 67.596 576.49 67.4427C571.878 67.176 566.219 66.7495 562.287 66.5816C559.723 66.472 560.281 66.5911 559.18 66.5978C557.041 66.611 553.281 66.2134 552.775 66.1553C552.76 66.1533 554.978 66.2395 553.797 66.1351C553.114 66.004 552.801 66.1561 552.775 66.1553C552.443 66.117 548.019 65.8851 547.141 65.8624C546.663 65.8498 546.926 65.9497 546.677 65.9415C540.762 65.7449 534.851 65.5089 528.885 65.2195C528.78 65.2134 528.942 65.1193 528.695 65.106C525.217 64.9168 522.98 64.9512 520.109 64.9139C517.239 64.8767 514.97 64.7681 513.282 64.5286C511.122 64.4709 508.031 64.2819 506.255 64.172C504.478 64.062 504.224 64.257 504.067 64.2557C499.193 64.2201 496.367 64.0128 491.268 63.8401C488.846 63.7575 484.05 63.6513 481.439 63.6057C479.374 63.5694 478.134 63.4882 476.235 63.4724C475.978 63.4702 476.235 63.5705 476.157 63.5722C474.036 63.6326 475.06 63.428 474.624 63.3762C473.044 63.1885 472.066 63.0842 469.359 63.0929C468.737 63.0946 466.909 63.3881 465.752 63.3837C464.256 63.3774 464.823 63.2689 463.257 63.2661C463.123 63.2658 463.15 63.3404 462.184 63.318C457.704 63.2152 452.835 63.087 448.21 63.0269C447.579 63.0185 448.387 63.1499 447.474 63.1399C443.176 63.0926 438.57 63.0347 434.322 62.9391C433.286 62.9153 433.936 62.8361 433.712 62.8087C432.333 62.6429 430.376 62.85 430.054 62.8521C422.369 62.9044 416.52 62.6815 408.778 62.7882C408.369 62.7938 405.057 63.0462 403.593 62.8425C403.492 62.8289 402.039 62.619 400.758 62.7729C400.678 62.7826 401.582 62.8888 400.005 62.8858C398.429 62.8828 395.897 62.9741 393.74 62.8696C393.057 62.8368 391.441 62.6333 389.411 62.8272C389.278 62.8398 386.15 63.2671 385.032 63.0109C384.851 62.9688 385.035 62.6782 382.624 62.8576C382.163 62.8925 383 62.945 381.787 63.0019C379.945 63.0896 377.428 63.0509 375.108 63.2203C374.703 63.25 372.984 63.4775 371.603 63.355C371.386 63.3358 371.795 63.231 371.066 63.2343C367.603 63.2496 363.994 63.3947 360.507 63.4146C359.272 63.422 359.899 63.2481 358.612 63.2388C357.325 63.2293 354.74 63.2588 353.403 63.3702C352.066 63.4816 353.535 63.6913 351.532 63.7712C342.642 64.1267 333.893 64.3066 325.207 64.6815C323.915 64.7377 325.003 64.7792 323.082 64.8709C315.891 65.2045 303.691 65.9805 297.641 66.1846C292.701 66.3481 298.93 65.8181 295.124 66.0032C293.284 66.0938 291.326 66.5348 290.886 66.5753C286.584 66.9741 283.602 67.0608 279.776 67.4014C278.986 67.4721 279.771 67.535 279.099 67.594C276.806 67.7968 274.4 67.9384 272.228 68.1329C271.252 68.2207 271.445 68.2998 270.541 68.3702C268.328 68.5447 266.377 68.6782 264.23 68.785C264.035 68.7948 265.338 68.5559 263.715 68.7004C261.089 68.9351 257.839 69.1568 254.867 69.5472C253.985 69.6637 253.971 69.8844 252.06 69.9282C251.661 69.938 252.138 69.6223 249.96 70.0788C249.576 70.1559 245.993 70.8469 244.076 70.862C243.579 70.8645 242.303 70.7894 241.227 70.9461C241.081 70.9682 241.681 71.0188 240.788 71.1322C237.641 71.5305 234.363 71.9086 231.181 72.3425C230.332 72.4588 231.614 72.4222 230.348 72.592C226.842 73.0626 222.65 73.5839 219.139 74.0328C217.858 74.1961 218.728 73.9723 218.633 73.9742C217.113 74.0036 216.267 74.3707 215.775 74.4551C212.718 74.9783 210.383 75.2089 207.6 75.6652C206.832 75.7911 207.395 75.8227 207.243 75.8564C205.674 76.2013 206.822 75.8121 205.817 75.9447C202.988 76.3184 199.946 76.8186 197.078 77.315C196.012 77.5 197.234 77.4317 196.277 77.5965C190.62 78.5749 184.845 79.6122 179.514 80.5772C178.511 80.7588 179.12 80.5331 178.907 80.5505C177.436 80.6675 175.395 81.3108 174.869 81.4405C172.608 82.0024 171.711 82.0955 169.722 82.534C160.108 84.6441 148.231 87.4643 139.367 89.9177C138.487 90.1588 137.627 90.3974 136.783 90.6338C126.163 93.6384 118.116 96.154 107.918 100.011C107.235 100.272 107.973 100.139 107.385 100.366C99.9857 103.215 92.2449 106.466 85.168 109.994C84.5847 110.285 85.4826 109.983 84.5501 110.454C82.5917 111.443 80.0151 112.765 78.0421 113.788C77.0743 114.29 78.3081 113.499 77.3359 114.008C75.0748 115.193 72.7277 116.522 70.5566 117.848C69.6344 118.413 71.096 117.679 69.895 118.405C61.3191 123.628 53.5483 129.304 46.2895 135.87C45.8058 136.309 45.1732 136.577 44.1588 137.635C44.1255 137.758 44.1836 137.808 44.1981 137.892C34.0913 147.838 25.8226 159.88 21.3114 173.42C21.1207 173.992 21.5453 173.035 21.1796 174.142C19.0743 180.645 17.8551 186.919 17.1965 193.993C17.1387 194.678 16.9939 194.306 16.9049 196.293C16.8795 196.638 16.7966 199.653 16.8351 200.447C16.8394 200.554 16.9128 199.998 16.908 200.981C16.8928 206.82 17.3659 212.629 18.2247 218.354C18.3655 219.281 18.1464 218.304 18.2477 218.965C19.0109 223.848 20.0832 228.412 21.2295 232.828C22.0061 235.754 21.6247 234.7 22.0003 236.286C22.0514 236.51 22.6137 238.343 22.6013 238.454C22.5634 238.735 22.1537 237.884 22.1459 238.289C22.1422 238.354 22.6386 239.836 22.6185 239.845C22.6185 239.845 22.6185 239.845 22.6185 239.845C22.6119 239.847 22.5592 239.72 22.4354 239.392C22.3947 239.29 21.7976 237.51 21.6419 237.081C21.5313 236.781 21.6548 237.344 21.4408 236.729C21.2276 236.114 21.059 235.42 20.7335 234.404C20.4126 233.392 20.4747 233.852 19.9004 231.828ZM498.265 63.6861C496.618 63.5338 496.359 63.887 498.151 63.8583C498.237 63.8565 498.35 63.6937 498.265 63.6861ZM696.2 56.3613C694.172 57.1085 692.841 57.8053 694.294 57.3009C695.744 56.7912 696.817 56.1314 696.2 56.3613ZM716.192 46.2381C713.957 47.4468 713.759 47.9202 716.09 46.4977C716.225 46.4147 716.322 46.167 716.192 46.2381ZM20.0162 229.123C20.0174 229.145 20.3375 230.427 20.3496 230.458C20.5802 231.125 19.9409 228.561 20.0162 229.123ZM734.476 33.6068C733.851 34.0688 732.067 35.5177 732.878 34.946C733.54 34.4856 735.265 33.0312 734.476 33.6068ZM412.109 61.7583C412.083 61.7523 411.132 61.7463 411.151 61.7798C411.215 61.8877 412.539 61.8582 412.109 61.7583ZM756.196 3.7614C756.122 6.5886 755.173 8.66272 754.851 9.41258C754.464 10.1296 754.89 9.47707 755.647 6.59618C755.768 6.05027 755.665 6.64565 755.535 7.19756C755.415 7.71233 755.279 8.20575 755.484 7.55452C756.174 5.06829 756.294 3.34014 755.663 0.815055C755.594 0.596129 755.851 1.19851 756.007 1.96722C756.175 2.75744 756.201 3.59706 756.196 3.77137C756.196 3.76806 756.196 3.76471 756.196 3.7614ZM497.328 63.2218C497.295 63.2159 495.963 63.1677 495.931 63.1715C495.206 63.2627 497.89 63.3594 497.328 63.2218ZM356.214 62.1877C356.141 62.1773 353.09 62.2495 352.992 62.2637C351.408 62.5238 357.573 62.377 356.214 62.1877ZM586.514 67.1006C587.966 67.0853 589.702 67.177 590.844 67.3694C589.411 67.2776 587.959 67.1911 586.514 67.1006Z" fill="white"/>
<path d="M32.9732 222.712C32.9509 223.141 32.5775 223.821 32.3721 224.194C32.3684 224.201 32.3647 224.208 32.361 224.215C32.3123 224.304 32.2713 224.39 32.2235 224.491C32.1096 224.732 31.9555 225.058 31.5583 225.704C31.4723 225.905 31.3847 226.105 31.2954 226.305C30.3304 228.461 29.2479 230.565 28.1421 232.658C28.1307 232.685 28.119 232.713 28.1072 232.742C27.8798 233.289 27.5977 233.968 27.3576 234.366C27.0523 234.872 26.8286 235.209 26.6423 235.484C25.7754 237.122 24.9202 238.765 24.122 240.433L23.7313 241.529L22.5683 240.884C22.5459 240.869 22.5236 240.853 22.5011 240.837C22.0187 240.501 21.5327 240.17 21.0424 239.845C20.5908 239.546 20.1365 239.251 19.6798 238.96C19.3983 238.814 19.1262 238.682 18.8739 238.559C18.5193 238.387 18.2037 238.234 17.9558 238.088C17.3586 237.736 16.7355 237.255 16.2729 236.897C16.1973 236.839 16.1259 236.784 16.0596 236.733C15.6618 236.495 15.2631 236.258 14.8642 236.022C14.8455 235.994 14.8269 235.965 14.8081 235.936C14.5733 235.575 14.1669 235.309 13.5275 234.889C13.249 234.707 12.9263 234.495 12.5542 234.234C12.3145 234.065 12.2266 233.925 12.1548 233.811C12.1336 233.778 12.1138 233.746 12.092 233.717C12.0172 233.617 11.8886 233.586 11.7367 233.551C11.5396 233.504 11.303 233.448 11.0938 233.219C10.4272 232.487 9.98389 232.39 9.64857 232.317C9.55022 232.296 9.46112 232.277 9.37841 232.244C9.11024 232.137 8.80722 231.866 8.5982 231.631C8.43247 231.445 7.99529 231.231 7.64576 231.097C7.51361 231.046 7.35721 230.943 7.17311 230.822C6.98259 230.697 6.76226 230.552 6.50808 230.425C5.86574 230.103 5.52661 229.929 5.25406 229.788C5.17636 229.749 5.10409 229.711 5.0317 229.674C4.8029 229.557 4.52558 229.402 4.24485 229.245C3.9089 229.056 3.56793 228.865 3.29931 228.734C2.68101 228.275 2.06802 227.809 1.45508 227.343C1.14039 227.103 0.906095 226.77 0.807772 226.413C0.709603 226.056 0.754318 225.704 0.936111 225.43C1.11792 225.155 1.4241 224.977 1.79135 224.928C2.15855 224.879 2.55608 224.964 2.89972 225.16C3.5917 225.556 4.28384 225.951 4.97001 226.356C5.80587 226.848 6.63308 227.354 7.44093 227.889C8.00606 228.263 8.56688 228.644 9.12422 229.029C9.1816 229.069 9.2389 229.109 9.29621 229.149C9.81574 229.396 10.3303 229.648 10.6787 229.847C10.9663 230.011 11.1434 230.18 11.2951 230.325C11.3995 230.425 11.4918 230.513 11.5998 230.58C11.6578 230.616 11.7384 230.664 11.8355 230.721C12.2321 230.954 12.9057 231.35 13.4555 231.809C13.6994 232.012 13.9671 232.273 14.2227 232.521C14.5882 232.876 14.929 233.208 15.1405 233.315C15.512 233.504 15.8857 233.8 16.2159 234.061C16.5308 234.31 16.8063 234.528 17.0026 234.592C17.2371 234.669 17.3915 234.803 17.6211 235.003C17.7803 235.141 17.9759 235.311 18.2593 235.515C18.5866 235.75 18.7988 235.946 18.9792 236.112C19.2331 236.346 19.4242 236.522 19.7849 236.67C20.1856 236.834 20.5853 237.034 20.8621 237.249C20.9881 237.347 21.1416 237.445 21.3013 237.547C21.5127 237.682 21.7351 237.824 21.9192 237.982C22.0709 238.113 22.1724 238.257 22.2623 238.384C22.2903 238.424 22.3172 238.462 22.3442 238.497C22.4765 238.584 22.609 238.67 22.7418 238.756C22.7689 238.762 22.7976 238.767 22.8275 238.773C22.9776 238.801 23.1621 238.837 23.361 238.925C23.4967 238.985 23.6164 239.056 23.728 239.133L22.2045 239.575C22.2808 239.413 22.3707 239.263 22.4634 239.109C22.5904 238.898 22.7226 238.678 22.8317 238.407C22.9062 238.222 22.9749 238.004 23.0431 237.789C23.1443 237.469 23.2444 237.152 23.3599 236.953C23.4031 236.878 23.4699 236.828 23.5362 236.777C23.5366 236.777 23.5369 236.777 23.5373 236.777C23.5418 236.773 23.5462 236.77 23.5507 236.766C23.7506 236.245 23.9476 235.722 24.143 235.199C24.1533 235.15 24.164 235.101 24.1746 235.053C24.2265 234.817 24.2769 234.588 24.2765 234.424C24.276 234.246 24.4039 233.856 24.5386 233.445C24.6269 233.176 24.7182 232.897 24.7782 232.664C24.8133 232.527 24.905 232.424 24.9993 232.318C25.0874 232.218 25.1777 232.116 25.2266 231.983C25.251 231.916 25.2667 231.838 25.2835 231.756C25.2983 231.684 25.3139 231.607 25.337 231.53C25.3585 231.458 25.4466 231.316 25.5594 231.134C25.6291 231.022 25.7082 230.894 25.7871 230.758C25.9323 230.371 26.0785 229.983 26.2263 229.597C26.2284 229.503 26.216 229.416 26.185 229.337C26.1628 229.281 26.1302 229.226 26.097 229.171C26.0519 229.095 26.0052 229.017 25.9804 228.927C25.961 228.857 25.9713 228.788 26.0071 228.756C26.0238 228.74 26.0458 228.733 26.0657 228.726C26.0885 228.718 26.1088 228.711 26.1158 228.694C26.1208 228.682 26.115 228.664 26.1081 228.643C26.097 228.609 26.0829 228.565 26.1034 228.516C26.1798 228.335 26.28 228.136 26.3782 227.94C26.4875 227.723 26.5941 227.51 26.663 227.334C26.7401 227.136 26.9056 226.879 27.0713 226.622C27.1868 226.442 27.3023 226.262 27.3884 226.102C27.4727 225.945 27.525 225.766 27.5755 225.592C27.636 225.384 27.6942 225.183 27.803 225.039C27.825 225.01 27.8887 224.99 27.9685 224.965C28.025 224.947 28.0898 224.927 28.1535 224.899C28.2449 224.695 28.3382 224.491 28.4331 224.288C28.4302 224.278 28.4272 224.268 28.4241 224.258C28.424 224.258 28.4239 224.257 28.4238 224.257C28.3535 224.024 28.2575 223.706 28.5205 223.436C28.5873 223.368 28.6661 223.341 28.7371 223.317C28.8067 223.293 28.869 223.272 28.905 223.217C28.9459 223.153 28.9515 223.06 28.9578 222.958C28.9665 222.814 28.9763 222.654 29.0858 222.538C29.0933 222.53 29.1014 222.522 29.1097 222.513C29.1885 222.429 29.305 222.304 29.4723 222.202C29.6944 221.779 29.9211 221.358 30.1507 220.938C30.5335 220.237 30.9244 219.541 31.3152 218.844C31.5057 218.506 31.7957 218.229 32.129 218.078C32.4627 217.928 32.8107 217.915 33.1056 218.047C33.4006 218.179 33.6227 218.447 33.7328 218.796C33.8427 219.145 33.8295 219.546 33.7039 219.913C33.4984 220.513 33.2929 221.112 33.0834 221.71C33.076 221.743 33.0683 221.776 33.0604 221.808C33.0012 222.051 32.991 222.297 32.9808 222.543C32.9785 222.599 32.9761 222.656 32.9732 222.712Z" fill="white"/>
<path d="M1589.24 232.078C1590.56 227.441 1591.9 221.243 1592.58 216.337C1592.79 214.83 1592.64 215.587 1592.77 214.551C1593.02 212.528 1593.24 210.668 1593.38 208.713C1593.43 208.018 1593.29 208.877 1593.34 208.15C1593.6 204.168 1593.69 200.491 1593.52 196.645C1592.8 177.341 1585.34 158.629 1572.62 143.788C1568.53 138.898 1562.76 133.42 1557.68 129.214C1557.07 128.713 1557.5 128.933 1557.39 128.833C1555.64 127.26 1556.12 127.905 1554.9 126.973C1550.1 123.349 1544.65 119.672 1539.62 116.589C1537.58 115.34 1539.75 116.398 1537.61 115.261C1537.46 115.182 1537.93 115.587 1537.35 115.262C1536.05 114.522 1533.55 113.09 1532.5 112.53C1530.48 111.449 1530.14 111.269 1528.19 110.255C1525.41 108.822 1522.48 107.45 1519.6 106.082C1518.99 105.794 1519.85 106.062 1518.88 105.594C1517.92 105.124 1515.3 103.959 1514.39 103.596C1513.48 103.231 1513.82 103.482 1513.66 103.433C1512.28 103.025 1509.27 101.498 1508.93 101.356C1502.06 98.4224 1495.34 96.1289 1488.7 93.9193C1483.62 92.2268 1477.88 90.4175 1472.89 89.0035C1472.85 88.992 1472.81 88.9805 1472.77 88.969C1466.88 87.3046 1461.74 86.0201 1455.73 84.5364C1455.1 84.3804 1455.87 84.4245 1455.1 84.2339C1447.23 82.3069 1438.99 80.5319 1430.89 79.0387C1430.09 78.8914 1431.09 79.2149 1430.29 79.0752C1425.39 78.2088 1417.43 77.0295 1414.49 75.9929C1410.96 75.4125 1407.04 74.7991 1403.98 74.4334C1402.02 74.2011 1403.89 74.6249 1401.51 74.2013C1400.97 74.1064 1401.69 74.097 1400.88 73.9637C1397.47 73.4026 1393.69 72.8948 1390.25 72.3588C1389.55 72.2495 1389.76 72.1719 1389.56 72.1258C1387.86 71.7368 1385.21 71.6398 1384.59 71.5788C1380.09 71.1268 1376.78 70.6628 1372.52 70.1618C1371.53 70.0462 1372.72 70.0442 1371.76 69.9282C1366.8 69.3262 1361.67 68.7807 1356.92 68.3587C1355.85 68.2644 1356.82 68.4823 1356.31 68.4434C1354.06 68.2715 1353.58 67.9987 1351.41 67.8364C1350.95 67.8021 1351.2 67.9282 1351.12 67.9312C1349.8 67.9796 1348.68 67.6253 1348.35 67.5883C1344.1 67.1163 1341.27 67.1244 1337.19 66.743C1336.71 66.6977 1337.81 66.6618 1336.45 66.5426C1327.42 65.7507 1317.47 65.0732 1308.42 64.6207C1307.02 64.5502 1308.01 64.7061 1307.92 64.7124C1306.47 64.8065 1305.55 64.5072 1305.1 64.4708C1301.48 64.1906 1298.06 64.2081 1295.58 63.7887C1280 63.0725 1264.69 62.3547 1249.4 62.2347C1249.2 62.2329 1249.55 62.3575 1249.16 62.3534C1244.49 62.3078 1245.39 62.1496 1242.3 61.8645C1241.51 61.7931 1239.13 62.012 1238.92 62.0276C1238.15 62.0847 1238.94 62.2711 1238.68 62.2801C1236.55 62.3492 1236.91 61.7882 1234.03 61.7408C1233.94 61.7402 1234.31 61.8504 1234.07 61.8568C1233.32 61.8771 1232.57 61.8241 1231.84 61.8487C1230.14 61.9064 1229.54 62.1705 1227.02 61.9783C1226.7 61.9539 1227.19 61.6401 1224.65 61.6256C1223.64 61.619 1219.15 61.5692 1217.89 61.5807C1216.63 61.5911 1217.49 61.6999 1217.4 61.7036C1214 61.8122 1215.29 61.8781 1213.59 62.0653C1211.88 62.2523 1212.35 61.7834 1211.66 61.7268C1210.96 61.6702 1208.46 61.7696 1207.84 61.8059C1207.23 61.842 1207.99 61.909 1207.45 61.9287C1203.81 62.0584 1205.85 61.6907 1204.66 61.6132C1201.82 61.4316 1199.64 61.7782 1197.1 61.8143C1196.41 61.8242 1196.97 61.7449 1196.35 61.7384C1193.92 61.7145 1192.45 61.8255 1189.67 61.739C1189.21 61.7246 1186.96 61.5301 1185.5 61.6903C1185.3 61.7134 1185.88 61.7948 1184.84 61.8204C1183.28 61.8585 1180.46 61.8982 1178.78 61.8852C1177.53 61.8756 1178.96 61.7232 1177.39 61.7811C1176.69 61.8071 1177.99 61.8761 1176.68 61.9181C1175.38 61.9594 1172.03 61.9923 1170.79 62.0051C1169.54 62.0174 1170.22 61.9044 1170.12 61.8986C1169.51 61.8654 1167.11 61.8468 1166.9 61.8501C1156.22 61.9862 1146.17 62.3592 1135.77 62.5634C1134.95 62.5798 1135.49 62.4599 1135.37 62.4613C1132.56 62.4889 1134.78 62.7139 1132.83 62.8586C1133.1 62.6366 1131.95 62.7051 1129.97 62.7353C1129.02 62.7498 1129.53 62.6529 1129.45 62.6468C1128.03 62.56 1127.05 62.7504 1126.79 62.7906C1125.86 62.9388 1124.84 62.8245 1124.2 62.9243C1123.56 63.0234 1125.04 63.1001 1123.14 63.1539C1122.6 63.0936 1124.01 62.8534 1122.56 62.8641C1117.1 62.9014 1106.93 63.3975 1102.58 63.5737C1098.23 63.748 1096.82 63.7895 1094.27 63.9138C1089.68 64.141 1091.36 63.9341 1088.5 63.9851C1085.62 64.0384 1087.03 64.3259 1086.62 64.4167C1086.22 64.5072 1085.78 64.4491 1085.27 64.5104C1084.77 64.5716 1085.86 64.5772 1084.68 64.6409C1083.5 64.704 1080.26 64.7096 1079.85 64.651C1078.96 64.5267 1080.4 64.2932 1077.3 64.4889C1077.12 64.5002 1077.7 64.5641 1077.02 64.6031C1071.59 64.9099 1065.93 65.1751 1060.49 65.4979C1059.74 65.5424 1060.41 65.6066 1059.98 65.6335C1055.44 65.9158 1057.05 65.6745 1054.55 65.6193C1055.12 65.8303 1053.75 66.0434 1050.3 66.2193C1048.23 66.3254 1048.58 66.204 1047.24 66.2005C1046.84 66.1993 1045.39 66.3459 1045.12 66.3116C1044.24 66.2002 1045.6 65.9503 1042.07 66.2096C1041.91 66.2212 1042.41 66.2805 1041.87 66.3145C1038.4 66.5348 1037.98 66.3942 1034.22 66.5834C1031.27 66.7317 1026.03 67.1283 1022.67 67.3408C1022.76 67.5897 1019.58 67.7161 1018.28 67.62C1016.11 67.7561 1013.77 67.8879 1011.67 68.0397C1010.94 68.0919 1011.42 68.1345 1011.33 68.1478C1009.94 68.3541 1008.98 68.2466 1008.51 68.2692C1003.42 68.5212 999.282 68.9067 994.413 69.103C994.241 69.1098 993.95 68.9624 992.658 69.1684C992.575 69.1821 994.186 69.1524 991.899 69.3077C990.816 69.3813 989.282 69.5035 987.628 69.6267C985.781 69.7653 983.792 69.8607 982.123 69.8675C981.36 69.873 979.41 69.7823 977.849 69.8804C977.641 69.8939 977.868 69.9402 977.568 69.9652C976.596 70.0427 976.069 69.8769 974.93 69.9917C973.802 70.1048 971.392 70.148 968.208 69.8481C968.104 69.8385 967.365 69.6662 966.354 69.5907C964.742 69.4731 962.464 69.284 960.801 69.093C960.005 69.0019 960.523 68.984 960.385 68.9669C955.007 68.284 951.2 67.7461 945.519 66.6027C944.467 66.3926 941.53 65.6382 939.507 65.2095C937.296 64.7295 939.438 65.6867 934.459 64.2384C932.431 63.6294 930.035 62.4789 926.381 61.5026C919.483 59.1369 913.164 56.7218 906.564 53.5307C906.265 53.3866 905.395 52.8477 904.684 52.503C903.643 51.9981 903.055 51.7622 902.322 51.3962C899.281 49.8754 896.507 48.3222 893.634 46.6668C892.542 46.033 892.893 46.3014 891.607 45.539C890.339 44.7802 889.498 44.1908 887.764 43.1286C886.463 42.3279 885.109 41.606 883.404 40.4579C883.406 40.2954 882.283 39.5481 880.26 38.0432C879.874 37.7545 880.319 38.0217 880.137 37.8832C879.401 37.3194 878.697 36.8433 878.023 36.3029C877.86 36.1716 877.878 36.1306 877.747 36.0213C876.608 35.084 874.626 33.6254 874.308 33.3816C873.066 32.4501 872.473 31.8738 871.538 31.1004C870.601 30.3177 871.955 31.5398 870.873 30.6145C868.626 28.6943 865.827 26.0006 863.824 23.8265C862.99 22.9216 863.598 23.5027 863.48 23.3724C861.783 21.5099 860.159 19.5815 859.429 18.4306C858.217 17.2171 858.481 17.232 856.564 14.2573C856.417 14.0166 856.116 13.7651 856.671 14.7185C857.231 15.6728 858.139 16.9633 859.035 18.2155C859.22 18.4914 860.37 20.164 860.556 20.3925C861.904 22.1248 862.25 22.1804 862.335 22.2702C863.286 23.1949 864.874 25.0658 865.333 25.5382C867.416 27.725 869.321 29.4366 871.145 31.0714C872.361 32.1528 872.415 32.3724 873.409 33.1947C876.698 35.8678 878.001 36.6027 881.196 39.1158C881.873 39.6357 881.065 39.2809 883.679 40.9317C883.84 41.0361 885.832 42.2398 886.887 43.0011C887.021 43.0986 886.991 43.1348 887.173 43.2565C888.389 44.0668 889.275 44.5781 890.619 45.4181C891.96 46.2556 893.629 47.2702 895.232 48.1564C896.186 48.686 897.469 49.2869 897.946 49.5188C899.296 50.178 900.664 51.0096 901.514 51.3563C902.377 51.7064 900.81 50.7813 903.009 51.8324C903.032 51.9878 903.159 52.1991 903.232 52.3802C908.03 54.7647 912.862 56.8604 917.865 58.8249C918.483 59.0669 917.823 58.8886 918.486 59.1491C921.301 60.2477 923.782 61.0855 926.749 62.0941C929.053 62.8762 931.534 63.7272 933.985 64.4451C935.501 64.7148 939.125 65.7424 941.78 66.3398C942.708 66.551 942.657 66.4923 943.321 66.6277C945.835 67.1276 944.632 67.0116 945.315 67.1837C948.265 67.8969 948.555 67.6167 952.061 68.2349C952.247 68.2706 954.492 68.8181 954.801 68.8726C956.778 69.2426 955.139 68.8601 956.386 69.0267C958.668 69.3205 960.269 69.4766 962.94 69.8033C963.719 69.8991 965.596 70.1907 967.132 70.2084C967.333 70.2109 967.227 70.1403 967.388 70.1481C970.305 70.2823 970.375 70.4695 972.049 70.6136C973.735 70.7567 976.31 70.6625 976.84 70.6227C978.218 70.5296 975.785 70.5695 975.712 70.5538C974.84 70.4169 976.72 70.4764 978.163 70.4628C978.371 70.2677 980.389 70.2605 979.66 70.445C979.577 70.4662 978.452 70.4549 978.163 70.4628C979.432 70.6581 981.653 70.6652 984.087 70.381C985.228 70.2397 984.137 70.2143 987.622 70.0433C987.633 70.0427 987.644 70.0421 987.655 70.0415C989.188 69.9598 988.607 70.1362 989.988 70.0852C993.164 69.9682 997.274 69.5758 1000.54 69.3935C1001.73 69.3275 1000.58 69.4778 1001.39 69.4356C1003.54 69.3243 1005.43 69.149 1007.59 69.0492C1007.79 69.0403 1007.31 69.1524 1007.98 69.1131C1013.08 68.8173 1017.48 68.5055 1022.81 68.2006C1025.39 68.0532 1029.99 67.846 1032.65 67.6927C1037.26 67.426 1042.92 66.9995 1046.85 66.8316C1049.41 66.722 1048.85 66.8411 1049.96 66.8478C1052.09 66.861 1055.85 66.4634 1056.36 66.4053C1056.38 66.4033 1054.16 66.4895 1055.34 66.3851C1056.02 66.254 1056.33 66.4061 1056.36 66.4053C1056.69 66.367 1061.12 66.1351 1061.99 66.1124C1062.47 66.0998 1062.21 66.1997 1062.46 66.1915C1068.37 65.9949 1074.28 65.7589 1080.25 65.4695C1080.36 65.4634 1080.19 65.3693 1080.44 65.356C1083.92 65.1668 1086.16 65.2012 1089.03 65.1639C1091.9 65.1267 1094.17 65.0181 1095.85 64.7786C1098.01 64.7209 1101.1 64.5319 1102.88 64.422C1104.66 64.312 1104.91 64.507 1105.07 64.5057C1109.94 64.4701 1112.77 64.2628 1117.87 64.0901C1120.29 64.0075 1125.09 63.9013 1127.7 63.8557C1129.76 63.8194 1131 63.7382 1132.9 63.7224C1133.16 63.7202 1132.9 63.8205 1132.98 63.8222C1135.1 63.8826 1134.08 63.678 1134.51 63.6262C1136.09 63.4385 1137.07 63.3342 1139.78 63.3429C1140.4 63.3446 1142.23 63.6381 1143.38 63.6337C1144.88 63.6274 1144.31 63.5189 1145.88 63.5161C1146.01 63.5158 1145.99 63.5904 1146.95 63.568C1151.43 63.4652 1156.3 63.337 1160.93 63.2769C1161.56 63.2685 1160.75 63.3999 1161.66 63.3899C1165.96 63.3426 1170.57 63.2847 1174.81 63.1891C1175.85 63.1653 1175.2 63.0861 1175.42 63.0587C1176.8 62.8929 1178.76 63.1 1179.08 63.1021C1186.77 63.1544 1192.62 62.9315 1200.36 63.0382C1200.77 63.0438 1204.08 63.2962 1205.54 63.0925C1205.64 63.0789 1207.1 62.869 1208.38 63.0229C1208.46 63.0326 1207.55 63.1388 1209.13 63.1358C1210.71 63.1328 1213.24 63.2241 1215.4 63.1196C1216.08 63.0868 1217.69 62.8833 1219.72 63.0772C1219.86 63.0898 1222.99 63.5171 1224.1 63.2609C1224.28 63.2188 1224.1 62.9282 1226.51 63.1076C1226.97 63.1425 1226.14 63.195 1227.35 63.2519C1229.19 63.3396 1231.71 63.3009 1234.03 63.4703C1234.43 63.5 1236.15 63.7275 1237.53 63.605C1237.75 63.5858 1237.34 63.481 1238.07 63.4843C1241.53 63.4996 1245.14 63.6447 1248.63 63.6646C1249.86 63.672 1249.24 63.4981 1250.52 63.4888C1251.81 63.4793 1254.4 63.5088 1255.73 63.6202C1257.07 63.7316 1255.6 63.9413 1257.6 64.0212C1266.49 64.3767 1275.24 64.5566 1283.93 64.9315C1285.22 64.9877 1284.13 65.0292 1286.05 65.1209C1293.24 65.4545 1305.44 66.2305 1311.49 66.4346C1316.43 66.5981 1310.21 66.0681 1314.01 66.2532C1315.85 66.3438 1317.81 66.7848 1318.25 66.8253C1322.55 67.2241 1325.53 67.3108 1329.36 67.6514C1330.15 67.7221 1329.36 67.785 1330.04 67.844C1332.33 68.0468 1334.74 68.1884 1336.91 68.3829C1337.88 68.4707 1337.69 68.5498 1338.59 68.6202C1340.81 68.7947 1342.76 68.9282 1344.91 69.035C1345.1 69.0448 1343.8 68.8059 1345.42 68.9504C1348.05 69.1851 1351.3 69.4068 1354.27 69.7972C1355.15 69.9137 1355.16 70.1344 1357.07 70.1782C1357.47 70.188 1357 69.8723 1359.18 70.3288C1359.56 70.4059 1363.14 71.0969 1365.06 71.112C1365.56 71.1145 1366.83 71.0394 1367.91 71.1961C1368.05 71.2182 1367.45 71.2688 1368.35 71.3822C1371.49 71.7805 1374.77 72.1586 1377.95 72.5925C1378.8 72.7088 1377.52 72.6722 1378.79 72.842C1382.29 73.3126 1386.49 73.8339 1390 74.2828C1391.28 74.4461 1390.41 74.2223 1390.5 74.2242C1392.02 74.2536 1392.87 74.6207 1393.36 74.7051C1396.42 75.2283 1398.75 75.4589 1401.54 75.9152C1402.3 76.0411 1401.74 76.0727 1401.89 76.1064C1403.46 76.4513 1402.31 76.0621 1403.32 76.1947C1406.15 76.5684 1409.19 77.0686 1412.06 77.565C1413.12 77.75 1411.9 77.6817 1412.86 77.8465C1418.52 78.8249 1424.29 79.8622 1429.62 80.8272C1430.62 81.0088 1430.02 80.7831 1430.23 80.8005C1431.7 80.9175 1433.74 81.5608 1434.27 81.6905C1436.53 82.2524 1437.42 82.3455 1439.41 82.784C1449.03 84.8941 1460.9 87.7143 1469.77 90.1677C1470.65 90.4088 1471.51 90.6474 1472.35 90.8838C1482.97 93.8884 1491.02 96.404 1501.22 100.261C1501.9 100.522 1501.16 100.389 1501.75 100.616C1509.15 103.465 1516.89 106.716 1523.97 110.244C1524.55 110.535 1523.65 110.233 1524.59 110.704C1526.54 111.693 1529.12 113.015 1531.09 114.038C1532.06 114.54 1530.83 113.749 1531.8 114.258C1534.06 115.443 1536.41 116.772 1538.58 118.098C1539.5 118.663 1538.04 117.929 1539.24 118.655C1547.82 123.878 1555.59 129.554 1562.85 136.12C1563.33 136.559 1563.96 136.827 1564.98 137.885C1565.01 138.008 1564.95 138.058 1564.94 138.142C1575.04 148.088 1583.31 160.13 1587.82 173.67C1588.01 174.242 1587.59 173.285 1587.96 174.392C1590.06 180.895 1591.28 187.169 1591.94 194.243C1592 194.928 1592.14 194.556 1592.23 196.543C1592.26 196.888 1592.34 199.903 1592.3 200.697C1592.3 200.804 1592.22 200.248 1592.23 201.231C1592.24 207.07 1591.77 212.879 1590.91 218.604C1590.77 219.531 1590.99 218.554 1590.89 219.215C1590.12 224.098 1589.05 228.662 1587.91 233.078C1587.13 236.004 1587.51 234.95 1587.14 236.536C1587.08 236.76 1586.52 238.593 1586.53 238.704C1586.57 238.985 1586.98 238.134 1586.99 238.539C1586.99 238.604 1586.5 240.086 1586.52 240.095C1586.52 240.095 1586.52 240.095 1586.52 240.095C1586.52 240.097 1586.58 239.97 1586.7 239.642C1586.74 239.54 1587.34 237.76 1587.49 237.331C1587.6 237.031 1587.48 237.594 1587.69 236.979C1587.91 236.364 1588.08 235.67 1588.4 234.654C1588.72 233.642 1588.66 234.102 1589.24 232.078ZM1110.87 63.9361C1112.52 63.7838 1112.78 64.137 1110.98 64.1083C1110.9 64.1065 1110.79 63.9437 1110.87 63.9361ZM912.935 56.6113C914.963 57.3585 916.295 58.0553 914.841 57.5509C913.392 57.0412 912.319 56.3814 912.935 56.6113ZM892.943 46.4881C895.179 47.6968 895.376 48.1702 893.045 46.7477C892.91 46.6647 892.813 46.417 892.943 46.4881ZM1589.12 229.373C1589.12 229.395 1588.8 230.677 1588.79 230.708C1588.56 231.375 1589.19 228.811 1589.12 229.373ZM874.659 33.8568C875.284 34.3188 877.069 35.7677 876.257 35.196C875.596 34.7356 873.871 33.2812 874.659 33.8568ZM1197.03 62.0083C1197.05 62.0023 1198 61.9963 1197.98 62.0298C1197.92 62.1377 1196.6 62.1082 1197.03 62.0083ZM852.939 4.0114C853.013 6.8386 853.962 8.91272 854.285 9.66258C854.672 10.3796 854.246 9.72707 853.489 6.84618C853.368 6.30027 853.471 6.89565 853.601 7.44756C853.721 7.96233 853.856 8.45575 853.651 7.80452C852.962 5.31829 852.842 3.59014 853.473 1.06506C853.541 0.846129 853.285 1.44851 853.129 2.21722C852.961 3.00744 852.935 3.84706 852.939 4.02137C852.939 4.01806 852.939 4.01471 852.939 4.0114ZM1111.81 63.4718C1111.84 63.4659 1113.17 63.4177 1113.2 63.4215C1113.93 63.5127 1111.25 63.6094 1111.81 63.4718ZM1252.92 62.4377C1252.99 62.4273 1256.05 62.4995 1256.14 62.5137C1257.73 62.7738 1251.56 62.627 1252.92 62.4377ZM1022.62 67.3506C1021.17 67.3353 1019.43 67.427 1018.29 67.6194C1019.72 67.5276 1021.18 67.4411 1022.62 67.3506Z" fill="white"/>
<path d="M1576.16 222.962C1576.18 223.391 1576.56 224.071 1576.76 224.444C1576.77 224.451 1576.77 224.458 1576.77 224.465C1576.82 224.554 1576.86 224.64 1576.91 224.741C1577.03 224.982 1577.18 225.308 1577.58 225.954C1577.66 226.155 1577.75 226.355 1577.84 226.555C1578.81 228.711 1579.89 230.815 1580.99 232.908C1581 232.935 1581.02 232.963 1581.03 232.992C1581.26 233.539 1581.54 234.218 1581.78 234.616C1582.08 235.122 1582.31 235.459 1582.49 235.734C1583.36 237.372 1584.22 239.015 1585.01 240.683L1585.4 241.779L1586.57 241.134C1586.59 241.119 1586.61 241.103 1586.63 241.087C1587.12 240.751 1587.6 240.42 1588.09 240.095C1588.54 239.796 1589 239.501 1589.46 239.21C1589.74 239.064 1590.01 238.932 1590.26 238.809C1590.62 238.637 1590.93 238.484 1591.18 238.338C1591.78 237.986 1592.4 237.505 1592.86 237.147C1592.94 237.089 1593.01 237.034 1593.08 236.983C1593.47 236.745 1593.87 236.508 1594.27 236.272C1594.29 236.244 1594.31 236.215 1594.33 236.186C1594.56 235.825 1594.97 235.559 1595.61 235.139C1595.89 234.957 1596.21 234.745 1596.58 234.484C1596.82 234.315 1596.91 234.175 1596.98 234.061C1597 234.028 1597.02 233.996 1597.04 233.967C1597.12 233.867 1597.25 233.836 1597.4 233.801C1597.6 233.754 1597.83 233.698 1598.04 233.469C1598.71 232.737 1599.15 232.64 1599.49 232.567C1599.59 232.546 1599.67 232.527 1599.76 232.494C1600.03 232.387 1600.33 232.116 1600.54 231.881C1600.7 231.695 1601.14 231.481 1601.49 231.347C1601.62 231.296 1601.78 231.193 1601.96 231.072C1602.15 230.947 1602.37 230.802 1602.63 230.675C1603.27 230.353 1603.61 230.179 1603.88 230.038C1603.96 229.999 1604.03 229.961 1604.1 229.924C1604.33 229.807 1604.61 229.652 1604.89 229.495C1605.23 229.306 1605.57 229.115 1605.84 228.984C1606.45 228.525 1607.07 228.059 1607.68 227.593C1608 227.353 1608.23 227.02 1608.33 226.663C1608.43 226.306 1608.38 225.954 1608.2 225.68C1608.02 225.405 1607.71 225.227 1607.34 225.178C1606.98 225.129 1606.58 225.214 1606.24 225.41C1605.54 225.806 1604.85 226.201 1604.17 226.606C1603.33 227.098 1602.5 227.604 1601.69 228.139C1601.13 228.513 1600.57 228.894 1600.01 229.279C1599.95 229.319 1599.9 229.359 1599.84 229.399C1599.32 229.646 1598.81 229.898 1598.46 230.097C1598.17 230.261 1597.99 230.43 1597.84 230.575C1597.74 230.675 1597.64 230.763 1597.54 230.83C1597.48 230.866 1597.4 230.914 1597.3 230.971C1596.9 231.204 1596.23 231.6 1595.68 232.059C1595.44 232.262 1595.17 232.523 1594.91 232.771C1594.55 233.126 1594.21 233.458 1593.99 233.565C1593.62 233.754 1593.25 234.05 1592.92 234.311C1592.6 234.56 1592.33 234.778 1592.13 234.842C1591.9 234.919 1591.74 235.053 1591.51 235.253C1591.36 235.391 1591.16 235.561 1590.88 235.765C1590.55 236 1590.34 236.196 1590.16 236.362C1589.9 236.596 1589.71 236.772 1589.35 236.92C1588.95 237.084 1588.55 237.284 1588.27 237.499C1588.15 237.597 1587.99 237.695 1587.83 237.797C1587.62 237.932 1587.4 238.074 1587.22 238.232C1587.06 238.363 1586.96 238.507 1586.87 238.634C1586.85 238.674 1586.82 238.712 1586.79 238.747C1586.66 238.834 1586.53 238.92 1586.39 239.006C1586.37 239.012 1586.34 239.017 1586.31 239.023C1586.16 239.051 1585.97 239.087 1585.77 239.175C1585.64 239.235 1585.52 239.306 1585.41 239.383L1586.93 239.825C1586.85 239.663 1586.76 239.513 1586.67 239.359C1586.55 239.148 1586.41 238.928 1586.3 238.657C1586.23 238.472 1586.16 238.254 1586.09 238.039C1585.99 237.719 1585.89 237.402 1585.78 237.203C1585.73 237.128 1585.67 237.078 1585.6 237.027C1585.6 237.027 1585.6 237.027 1585.6 237.027C1585.59 237.023 1585.59 237.02 1585.58 237.016C1585.38 236.495 1585.19 235.972 1584.99 235.449C1584.98 235.4 1584.97 235.351 1584.96 235.303C1584.91 235.067 1584.86 234.838 1584.86 234.674C1584.86 234.496 1584.73 234.106 1584.6 233.695C1584.51 233.426 1584.42 233.147 1584.36 232.914C1584.32 232.777 1584.23 232.674 1584.14 232.568C1584.05 232.468 1583.96 232.366 1583.91 232.233C1583.88 232.166 1583.87 232.088 1583.85 232.006C1583.84 231.934 1583.82 231.857 1583.8 231.78C1583.78 231.708 1583.69 231.566 1583.58 231.384C1583.51 231.272 1583.43 231.144 1583.35 231.008C1583.2 230.621 1583.06 230.233 1582.91 229.847C1582.91 229.753 1582.92 229.666 1582.95 229.587C1582.97 229.531 1583.01 229.476 1583.04 229.421C1583.08 229.345 1583.13 229.267 1583.16 229.177C1583.17 229.107 1583.16 229.038 1583.13 229.006C1583.11 228.99 1583.09 228.983 1583.07 228.976C1583.05 228.968 1583.03 228.961 1583.02 228.944C1583.01 228.932 1583.02 228.914 1583.03 228.893C1583.04 228.859 1583.05 228.815 1583.03 228.766C1582.96 228.585 1582.86 228.386 1582.76 228.19C1582.65 227.973 1582.54 227.76 1582.47 227.584C1582.4 227.386 1582.23 227.129 1582.06 226.872C1581.95 226.692 1581.83 226.512 1581.75 226.352C1581.66 226.195 1581.61 226.016 1581.56 225.842C1581.5 225.634 1581.44 225.433 1581.33 225.289C1581.31 225.26 1581.25 225.24 1581.17 225.215C1581.11 225.197 1581.05 225.177 1580.98 225.149C1580.89 224.945 1580.8 224.741 1580.7 224.538C1580.71 224.528 1580.71 224.518 1580.71 224.508C1580.71 224.508 1580.71 224.507 1580.71 224.507C1580.78 224.274 1580.88 223.956 1580.61 223.686C1580.55 223.618 1580.47 223.591 1580.4 223.567C1580.33 223.543 1580.27 223.522 1580.23 223.467C1580.19 223.403 1580.18 223.31 1580.18 223.208C1580.17 223.064 1580.16 222.904 1580.05 222.788C1580.04 222.78 1580.03 222.772 1580.03 222.763C1579.95 222.679 1579.83 222.554 1579.66 222.452C1579.44 222.029 1579.21 221.608 1578.98 221.188C1578.6 220.487 1578.21 219.791 1577.82 219.094C1577.63 218.756 1577.34 218.479 1577.01 218.328C1576.67 218.178 1576.32 218.165 1576.03 218.297C1575.73 218.429 1575.51 218.697 1575.4 219.046C1575.29 219.395 1575.31 219.796 1575.43 220.163C1575.64 220.763 1575.84 221.362 1576.05 221.96C1576.06 221.993 1576.07 222.026 1576.08 222.058C1576.13 222.301 1576.14 222.547 1576.15 222.793C1576.16 222.849 1576.16 222.906 1576.16 222.962Z" fill="white"/>
</svg>
